<svg xmlns="http://www.w3.org/2000/svg" xmlns:xlink="http://www.w3.org/1999/xlink" width="500" zoomAndPan="magnify" viewBox="0 0 375 374.999991" height="500" preserveAspectRatio="xMidYMid meet" version="1.0"><defs><clipPath id="f15b9aeb27"><path d="M 70.3125 0 L 305 0 L 305 375 L 70.3125 375 Z M 70.3125 0 " clip-rule="nonzero"/></clipPath></defs><g clip-path="url(#f15b9aeb27)"><path fill="#ffffff" d="M 140.625 117.1875 C 140.625 91.300781 161.613281 70.3125 187.5 70.3125 C 213.386719 70.3125 234.375 91.300781 234.375 117.1875 C 234.375 130.375 229.136719 143.019531 219.8125 152.34375 L 70.3125 301.84375 L 70.3125 375 L 304.6875 375 L 304.6875 304.6875 L 166.90625 304.6875 L 269.53125 202.0625 C 292.039062 179.550781 304.6875 149.023438 304.6875 117.1875 C 304.6875 52.464844 252.21875 0 187.5 0 C 122.777344 0 70.3125 52.464844 70.3125 117.1875 Z M 140.625 117.1875 " fill-opacity="1" fill-rule="nonzero"/></g></svg>