<svg xmlns="http://www.w3.org/2000/svg" xmlns:xlink="http://www.w3.org/1999/xlink" width="500" zoomAndPan="magnify" viewBox="0 0 375 374.999991" height="500" preserveAspectRatio="xMidYMid meet" version="1.0"><defs><clipPath id="469b3f8264"><path d="M 58.59375 0 L 316.59375 0 L 316.59375 375 L 58.59375 375 Z M 58.59375 0 " clip-rule="nonzero"/></clipPath></defs><g clip-path="url(#469b3f8264)"><path fill="#ffffff" d="M 70.3125 70.3125 L 196.453125 70.3125 L 140.625 133.117188 L 140.625 187.5 L 187.5 187.5 C 219.859375 187.5 246.09375 213.734375 246.09375 246.09375 C 246.09375 278.453125 219.859375 304.6875 187.5 304.6875 C 155.140625 304.6875 128.90625 278.453125 128.90625 246.09375 L 58.59375 246.09375 C 58.59375 317.289062 116.308594 375 187.5 375 C 258.695312 375 316.40625 317.289062 316.40625 246.09375 C 316.40625 193.308594 284.679688 147.929688 239.253906 127.996094 L 304.6875 54.382812 L 304.6875 0 L 70.3125 0 Z M 70.3125 70.3125 " fill-opacity="1" fill-rule="nonzero"/></g></svg>