<svg xmlns="http://www.w3.org/2000/svg" xmlns:xlink="http://www.w3.org/1999/xlink" width="500" zoomAndPan="magnify" viewBox="0 0 375 374.999991" height="500" preserveAspectRatio="xMidYMid meet" version="1.0"><defs><clipPath id="0728461dda"><path d="M 58.59375 0 L 316.59375 0 L 316.59375 375 L 58.59375 375 Z M 58.59375 0 " clip-rule="nonzero"/></clipPath></defs><g clip-path="url(#0728461dda)"><path fill="#ffffff" d="M 85.371094 0 L 304.6875 0 L 304.6875 70.3125 L 149.003906 70.3125 L 144.316406 117.1875 L 187.5 117.1875 C 258.695312 117.1875 316.40625 174.902344 316.40625 246.09375 C 316.40625 317.289062 258.695312 375 187.5 375 C 116.308594 375 58.59375 317.289062 58.59375 246.09375 L 128.90625 246.09375 C 128.90625 278.453125 155.140625 304.6875 187.5 304.6875 C 219.859375 304.6875 246.09375 278.453125 246.09375 246.09375 C 246.09375 213.734375 219.859375 187.5 187.5 187.5 L 66.621094 187.5 Z M 85.371094 0 " fill-opacity="1" fill-rule="nonzero"/></g></svg>