<svg xmlns="http://www.w3.org/2000/svg" xmlns:xlink="http://www.w3.org/1999/xlink" width="500" zoomAndPan="magnify" viewBox="0 0 375 374.999991" height="500" preserveAspectRatio="xMidYMid meet" version="1.0"><defs><clipPath id="c500405ef8"><path d="M 58.59375 0 L 316.59375 0 L 316.59375 375 L 58.59375 375 Z M 58.59375 0 " clip-rule="nonzero"/></clipPath></defs><g clip-path="url(#c500405ef8)"><path fill="#ffffff" d="M 80.796875 162.9375 L 174.484375 0 L 255.59375 0 L 188.207031 117.1875 C 259.074219 117.570312 316.40625 175.136719 316.40625 246.09375 C 316.40625 317.289062 258.695312 375 187.5 375 C 116.308594 375 58.59375 317.289062 58.59375 246.09375 C 58.59375 216.910156 66.25 188.234375 80.796875 162.9375 Z M 128.90625 246.09375 C 128.90625 278.453125 155.140625 304.6875 187.5 304.6875 C 219.859375 304.6875 246.09375 278.453125 246.09375 246.09375 C 246.09375 213.734375 219.859375 187.5 187.5 187.5 C 155.140625 187.5 128.90625 213.734375 128.90625 246.09375 Z M 128.90625 246.09375 " fill-opacity="1" fill-rule="evenodd"/></g></svg>