<svg xmlns="http://www.w3.org/2000/svg" xmlns:xlink="http://www.w3.org/1999/xlink" width="500" zoomAndPan="magnify" viewBox="0 0 375 374.999991" height="500" preserveAspectRatio="xMidYMid meet" version="1.0"><defs><clipPath id="6d29af2779"><path d="M 58.59375 0 L 316.59375 0 L 316.59375 375 L 58.59375 375 Z M 58.59375 0 " clip-rule="nonzero"/></clipPath></defs><g clip-path="url(#6d29af2779)"><path fill="#ffffff" d="M 82.03125 105.46875 C 82.03125 47.21875 129.25 0 187.5 0 C 245.75 0 292.96875 47.21875 292.96875 105.46875 C 292.96875 123.882812 288.25 141.199219 279.953125 156.265625 C 302.515625 179.480469 316.40625 211.164062 316.40625 246.09375 C 316.40625 317.289062 258.695312 375 187.5 375 C 116.308594 375 58.59375 317.289062 58.59375 246.09375 C 58.59375 211.164062 72.484375 179.480469 95.046875 156.265625 C 86.75 141.199219 82.03125 123.882812 82.03125 105.46875 Z M 187.5 70.3125 C 168.082031 70.3125 152.34375 86.050781 152.34375 105.46875 C 152.34375 124.886719 168.082031 140.625 187.5 140.625 C 206.917969 140.625 222.65625 124.886719 222.65625 105.46875 C 222.65625 86.050781 206.917969 70.3125 187.5 70.3125 Z M 187.5 187.5 C 155.140625 187.5 128.90625 213.734375 128.90625 246.09375 C 128.90625 278.453125 155.140625 304.6875 187.5 304.6875 C 219.859375 304.6875 246.09375 278.453125 246.09375 246.09375 C 246.09375 213.765625 219.910156 187.550781 187.59375 187.5 Z M 187.5 187.5 " fill-opacity="1" fill-rule="evenodd"/></g></svg>